<svg xmlns="http://www.w3.org/2000/svg" viewBox="0 0 100 100" width="100" height="100">
  <defs>
    <linearGradient id="hatGrad" x1="0%" y1="0%" x2="100%" y2="100%">
      <stop offset="0%" stop-color="#0284c7" />
      <stop offset="100%" stop-color="#075985" />
    </linearGradient>
    <linearGradient id="goldGrad" x1="0%" y1="0%" x2="100%" y2="100%">
      <stop offset="0%" stop-color="#f59e0b" />
      <stop offset="100%" stop-color="#d97706" />
    </linearGradient>
  </defs>
  <!-- Background Circle -->
  <circle cx="50" cy="50" r="46" fill="url(#hatGrad)" />
  <!-- Chef Hat Base Band -->
  <path d="M 32 65 L 68 65 C 71 65 72 68 72 71 C 72 74 71 77 68 77 L 32 77 C 29 77 28 74 28 71 C 28 68 29 65 32 65 Z" fill="url(#goldGrad)" />
  <!-- Chef Hat Puffy Top -->
  <path d="M 32 65 C 20 62 16 46 28 40 C 24 28 40 18 50 24 C 60 18 76 28 72 40 C 84 46 80 62 68 65 Z" fill="#ffffff" />
  <!-- Fold Accents -->
  <path d="M 40 44 Q 38 58 40 65" stroke="#bae6fd" stroke-width="2.5" stroke-linecap="round" fill="none" />
  <path d="M 50 40 Q 50 56 50 65" stroke="#bae6fd" stroke-width="2.5" stroke-linecap="round" fill="none" />
  <path d="M 60 44 Q 62 58 60 65" stroke="#bae6fd" stroke-width="2.5" stroke-linecap="round" fill="none" />
</svg>